# xmcd CD database file
#
# Track frame offsets:
#	150
#	20681
#	42787
#	54992
#	84314
#
# Disc length: 1446 seconds
#
# Revision: 0
# Processed by: cddbd v1.5.1PL0 Copyright (c) Steve Scherf et al.
# Submitted via: CDex 1.51
#
DISCID=3105a405
DTITLE=Jamie Cullum - Jonatha Brooke - Twentysomething - Back In The Circus
DYEAR=1900
DGENRE=Jazz
TTITLE0=All At Sea - Jamie Cullum
TTITLE1=High And Dry - Jamie Cullum
TTITLE2=Better After All - Jonatha Brooke
TTITLE3=It Matters Now - Jonatha Brooke
TTITLE4=data
EXTD=
EXTT0=
EXTT1=
EXTT2=
EXTT3=
EXTT4=
PLAYORDER=
